<?xml version="1.0" encoding="utf-8"?>
<!-- Generator: Adobe Illustrator 24.3.0, SVG Export Plug-In . SVG Version: 6.00 Build 0)  -->
<svg version="1.1" id="Layer_1" xmlns="http://www.w3.org/2000/svg" xmlns:xlink="http://www.w3.org/1999/xlink" x="0px" y="0px"
	 viewBox="0 0 373.18 184.54" style="enable-background:new 0 0 373.18 184.54;" xml:space="preserve">
<style type="text/css">
	.st0{fill:url(#SVGID_1_);}
	.st1{fill:url(#SVGID_2_);}
	.st2{fill:url(#SVGID_3_);}
	.st3{fill:#210080;}
	.st4{fill:url(#SVGID_4_);}
	.st5{fill:#FFFFFF;}
	.st6{fill:#0053FE;}
	.st7{fill:#0034DB;}
	.st8{fill:#5A00D7;}
	.st9{fill:#D83CFF;}
	.st10{fill:#FA00FF;}
	.st11{fill:url(#SVGID_5_);}
	.st12{clip-path:url(#SVGID_7_);}
</style>
<g>
	<path class="st3" d="M4.36,131.35c1.67-3.3,4.16-5.96,7.47-8c3.31-2.03,7.16-3.05,11.55-3.05c3.37,0,6.36,0.56,8.96,1.68
		c2.6,1.12,4.69,2.67,6.28,4.64c1.58,1.98,2.78,4.2,3.6,6.67s1.23,5.14,1.26,8.02c0,1.13-0.26,2.05-0.78,2.75
		c-0.52,0.7-1.31,1.05-2.35,1.05H12.79c0.46,8.19,4.66,12.29,12.59,12.29c3.6,0,7.45-1.47,11.55-4.4c0.52-0.41,1.09-0.61,1.7-0.61
		c0.9,0,1.7,0.41,2.4,1.22s1.05,1.73,1.05,2.75c0,1.16-0.46,2.15-1.39,2.96c-4.59,3.86-9.95,5.8-16.08,5.8
		c-6.89,0-12.4-2-16.54-6.01c-4.14-4.01-6.21-9.6-6.21-16.78C1.85,138.31,2.69,134.65,4.36,131.35z M34.14,138.96
		c-0.23-3.34-1.2-6.09-2.9-8.24c-1.7-2.15-4.22-3.23-7.56-3.23c-3.25,0-5.8,1.12-7.65,3.36s-2.9,4.94-3.16,8.11H34.14z"/>
	<path class="st3" d="M53.56,161.77c-2.83-2.19-4.25-5.25-4.25-9.17c0-1.74,0.18-3.28,0.54-4.6c0.36-1.32,0.87-2.46,1.53-3.42
		c0.65-0.96,1.58-1.77,2.77-2.44c1.19-0.67,2.45-1.21,3.79-1.63c1.34-0.42,3.03-0.75,5.08-0.98c2.05-0.23,4.12-0.38,6.21-0.46
		c2.09-0.07,4.62-0.11,7.58-0.11v-3.36c0-2.73-0.65-4.73-1.94-5.99c-1.29-1.26-3.22-1.9-5.77-1.9c-0.55,0-1.11,0.02-1.68,0.07
		c-0.57,0.04-1.14,0.12-1.72,0.22c-0.58,0.1-1.09,0.19-1.53,0.26c-0.44,0.07-0.96,0.2-1.57,0.37c-0.61,0.17-1.08,0.3-1.39,0.39
		c-0.32,0.09-0.78,0.24-1.39,0.46s-1,0.36-1.18,0.41c-0.17,0.06-0.57,0.21-1.18,0.46c-0.61,0.25-0.93,0.37-0.96,0.37
		c-0.32,0.15-0.73,0.22-1.22,0.22c-1.02,0-1.88-0.43-2.59-1.29c-0.71-0.86-1.07-1.82-1.07-2.9c0-1.42,0.64-2.44,1.92-3.05
		c4.82-2.27,10.18-3.4,16.08-3.4c2.67,0,5.07,0.3,7.19,0.92c2.12,0.61,3.99,1.55,5.62,2.83c1.63,1.28,2.88,3.01,3.77,5.19
		c0.89,2.18,1.33,4.75,1.33,7.71v22.14c0,1.74-0.51,3.09-1.53,4.05c-1.02,0.96-2.24,1.44-3.66,1.44s-2.65-0.48-3.68-1.44
		c-1.03-0.96-1.55-2.31-1.55-4.05v-1.44c-0.93,2.21-2.43,4-4.51,5.38s-4.8,2.07-8.17,2.07C60.02,165.08,56.39,163.97,53.56,161.77z
		 M73.41,154.78c2.24-2.29,3.36-5.2,3.36-8.72v-1.26c-2.91,0-5.21,0.04-6.91,0.13c-1.7,0.09-3.31,0.25-4.84,0.5
		c-1.53,0.25-2.65,0.64-3.38,1.18c-0.73,0.54-1.29,1.24-1.7,2.09c-0.41,0.86-0.61,1.96-0.61,3.29c0,2.03,0.59,3.58,1.77,4.64
		s2.74,1.59,4.68,1.59C68.63,158.22,71.17,157.07,73.41,154.78z"/>
	<path class="st3" d="M97.8,163.41c-0.92-0.78-1.37-1.84-1.37-3.18c0-1.37,0.48-2.66,1.44-3.88l21.44-27.15h-17.65
		c-1.37,0-2.44-0.38-3.22-1.13c-0.79-0.75-1.18-1.77-1.18-3.05c0-1.25,0.38-2.26,1.13-3.03c0.75-0.77,1.84-1.16,3.27-1.16h25.5
		c1.74,0,3.09,0.36,4.05,1.07c0.96,0.71,1.44,1.72,1.44,3.03s-0.51,2.66-1.53,4.05l-21.4,27.33h18.74c1.28,0,2.27,0.41,2.99,1.22
		c0.71,0.81,1.07,1.77,1.07,2.88c0,1.25-0.39,2.26-1.15,3.03c-0.77,0.77-1.87,1.16-3.29,1.16h-26.67
		C99.91,164.59,98.71,164.19,97.8,163.41z"/>
	<path class="st3" d="M140.24,163.41c-0.92-0.78-1.37-1.84-1.37-3.18c0-1.37,0.48-2.66,1.44-3.88l21.44-27.15H144.1
		c-1.37,0-2.44-0.38-3.22-1.13c-0.79-0.75-1.18-1.77-1.18-3.05c0-1.25,0.38-2.26,1.13-3.03c0.75-0.77,1.84-1.16,3.27-1.16h25.5
		c1.74,0,3.09,0.36,4.05,1.07c0.96,0.71,1.44,1.72,1.44,3.03s-0.51,2.66-1.53,4.05l-21.4,27.33h18.74c1.28,0,2.27,0.41,2.99,1.22
		c0.71,0.81,1.07,1.77,1.07,2.88c0,1.25-0.39,2.26-1.15,3.03c-0.77,0.77-1.87,1.16-3.29,1.16h-26.67
		C142.36,164.59,141.16,164.19,140.24,163.41z"/>
	<path class="st3" d="M193.04,183.06c-1.37,0-2.59-0.5-3.66-1.5c-1.08-1-1.61-2.22-1.61-3.64c0-0.81,0.19-1.6,0.57-2.35l8.72-17.39
		l-15.56-29.55c-0.41-0.79-0.61-1.6-0.61-2.44c0-1.37,0.54-2.53,1.61-3.49c1.07-0.96,2.31-1.44,3.7-1.44c2.06,0,3.63,1.05,4.71,3.14
		l11.59,22.84l11.64-23.23c1.1-2.27,2.72-3.4,4.84-3.4c1.34,0,2.51,0.47,3.51,1.42c1,0.94,1.5,2.1,1.5,3.46
		c0,0.87-0.2,1.71-0.61,2.53l-26.02,52.08C196.37,182.08,194.93,183.06,193.04,183.06z"/>
	<path class="st3" d="M232.57,179.53c-1.02-1.05-1.53-2.5-1.53-4.36v-48.07c0-1.89,0.54-3.4,1.61-4.53c1.07-1.13,2.4-1.7,3.97-1.7
		c1.63,0,2.93,0.46,3.9,1.39s1.46,2.28,1.46,4.05v1.53c2.79-5.06,7.58-7.58,14.38-7.58c3.86,0,7.24,1.01,10.13,3.03
		c2.89,2.02,5.07,4.73,6.54,8.13c1.47,3.4,2.2,7.25,2.2,11.55c0,6.83-1.77,12.22-5.32,16.19s-8.27,5.95-14.16,5.95
		c-6.33,0-10.92-2.34-13.77-7.02v17.08c0,1.89-0.52,3.35-1.55,4.38s-2.36,1.55-3.99,1.55C234.88,181.1,233.59,180.58,232.57,179.53z
		 M257.76,156.81c1.28-0.57,2.32-1.31,3.14-2.24s1.49-2.04,2.03-3.33c0.54-1.29,0.92-2.62,1.15-3.99c0.23-1.37,0.35-2.82,0.35-4.36
		c0-1.39-0.1-2.76-0.3-4.1c-0.2-1.34-0.57-2.69-1.09-4.05c-0.52-1.37-1.18-2.56-1.98-3.57c-0.8-1.02-1.84-1.84-3.12-2.48
		c-1.28-0.64-2.73-0.96-4.36-0.96c-4.18,0-7.15,1.26-8.91,3.79c-1.76,2.53-2.64,6.29-2.64,11.29c0,2.82,0.37,5.31,1.11,7.47
		c0.74,2.17,1.99,3.94,3.75,5.32c1.76,1.38,3.94,2.07,6.56,2.07C255.04,157.66,256.48,157.37,257.76,156.81z"/>
	<path class="st3" d="M286.02,161.77c-2.83-2.19-4.25-5.25-4.25-9.17c0-1.74,0.18-3.28,0.54-4.6c0.36-1.32,0.87-2.46,1.53-3.42
		c0.65-0.96,1.58-1.77,2.77-2.44c1.19-0.67,2.45-1.21,3.79-1.63c1.34-0.42,3.03-0.75,5.08-0.98c2.05-0.23,4.12-0.38,6.21-0.46
		c2.09-0.07,4.62-0.11,7.58-0.11v-3.36c0-2.73-0.65-4.73-1.94-5.99c-1.29-1.26-3.22-1.9-5.77-1.9c-0.55,0-1.11,0.02-1.68,0.07
		c-0.57,0.04-1.14,0.12-1.72,0.22c-0.58,0.1-1.09,0.19-1.53,0.26c-0.44,0.07-0.96,0.2-1.57,0.37c-0.61,0.17-1.08,0.3-1.39,0.39
		c-0.32,0.09-0.78,0.24-1.39,0.46s-1,0.36-1.18,0.41c-0.17,0.06-0.57,0.21-1.18,0.46c-0.61,0.25-0.93,0.37-0.96,0.37
		c-0.32,0.15-0.73,0.22-1.22,0.22c-1.02,0-1.88-0.43-2.59-1.29c-0.71-0.86-1.07-1.82-1.07-2.9c0-1.42,0.64-2.44,1.92-3.05
		c4.82-2.27,10.18-3.4,16.08-3.4c2.67,0,5.07,0.3,7.19,0.92c2.12,0.61,3.99,1.55,5.62,2.83c1.63,1.28,2.88,3.01,3.77,5.19
		c0.89,2.18,1.33,4.75,1.33,7.71v22.14c0,1.74-0.51,3.09-1.53,4.05c-1.02,0.96-2.24,1.44-3.66,1.44s-2.65-0.48-3.68-1.44
		c-1.03-0.96-1.55-2.31-1.55-4.05v-1.44c-0.93,2.21-2.43,4-4.51,5.38s-4.8,2.07-8.17,2.07
		C292.48,165.08,288.86,163.97,286.02,161.77z M305.87,154.78c2.24-2.29,3.36-5.2,3.36-8.72v-1.26c-2.91,0-5.21,0.04-6.91,0.13
		c-1.7,0.09-3.31,0.25-4.84,0.5c-1.53,0.25-2.65,0.64-3.38,1.18c-0.73,0.54-1.29,1.24-1.7,2.09c-0.41,0.86-0.61,1.96-0.61,3.29
		c0,2.03,0.59,3.58,1.77,4.64s2.74,1.59,4.68,1.59C301.09,158.22,303.64,157.07,305.87,154.78z"/>
	<path class="st3" d="M340.61,183.06c-1.37,0-2.59-0.5-3.66-1.5c-1.08-1-1.61-2.22-1.61-3.64c0-0.81,0.19-1.6,0.57-2.35l8.72-17.39
		l-15.56-29.55c-0.41-0.79-0.61-1.6-0.61-2.44c0-1.37,0.54-2.53,1.61-3.49c1.07-0.96,2.31-1.44,3.7-1.44c2.06,0,3.63,1.05,4.71,3.14
		l11.59,22.84l11.64-23.23c1.1-2.27,2.72-3.4,4.84-3.4c1.34,0,2.51,0.47,3.51,1.42c1,0.94,1.5,2.1,1.5,3.46
		c0,0.87-0.2,1.71-0.61,2.53l-26.02,52.08C343.93,182.08,342.5,183.06,340.61,183.06z"/>
</g>
<g>
	<linearGradient id="SVGID_1_" gradientUnits="userSpaceOnUse" x1="206.9257" y1="83.7839" x2="162.9904" y2="7.6857">
		<stop  offset="0" style="stop-color:#FA00FF"/>
		<stop  offset="0.2263" style="stop-color:#D83CFF"/>
		<stop  offset="0.5168" style="stop-color:#5A00D7"/>
		<stop  offset="0.7877" style="stop-color:#0034DB"/>
		<stop  offset="1" style="stop-color:#0053FE"/>
	</linearGradient>
	<path class="st0" d="M169.19,59.96c-0.28-4.35,0-8.2,1.19-11.97c1.44-4.57,4.06-8.26,8.16-10.8c5.85-3.62,11.75-7.18,17.63-10.76
		c0.49-0.3,0.97-0.59,1.66-1.01c-2.61-2.01-5.38-3.2-8.3-3.94c-16.62-4.23-28.13,8.6-29.97,21.47
		c-2.23,15.58,9.44,25.99,21.63,28.09c12.85,2.21,25.28-5.25,30.25-17.67c1.01-2.54,2.2-5.03,3.57-7.39
		c3.22-5.57,8.49-8.45,14.74-10.8c0.22,2.51,0.66,4.79,0.57,7.05c-0.46,11.68-4.26,22.19-11.71,31.23
		c-9.81,11.9-22.52,17.32-37.87,15.95c-18.74-1.66-33.87-14.75-38.52-32.95c-5.98-23.4,8.67-47.69,32.12-53.29
		c19.67-4.69,39.71,4.31,49.25,22.12c0.19,0.36,0.34,0.75,0.56,1.09c0.71,1.08,0.41,1.71-0.71,2.33c-5.39,3.03-10.74,6.13-16.1,9.23
		c-12.03,6.95-24.05,13.9-36.07,20.86C170.71,59.13,170.16,59.43,169.19,59.96z"/>
</g>
</svg>
